<svg style="background-color: #FFFFF0" width="1536" height="800"  xmlns="http://www.w3.org/2000/svg">
		<desc>name=''Fleur'' origin=''EMEA'' leafs=3 stems=1 npetals=12</desc>
<style>
    .small {
      font: italic 13px sans-serif;
    }
    .heavy {
      font: bold 30px sans-serif;
    }

    /* Note that the color of the text is set with the    *
     * fill property, the color property is for HTML only */
    .big {
      font: italic 40px serif;
      fill: black;
    }
  </style>
<text x="16" y="64" class="big">Les Fleurs Datamodel</text>


<g transform="translate(320, 600) scale(-0.8,0.8)">
<g opacity="0">
 <animate
      attributeName="opacity"
      values="0;1;1"
	  begin="3s"
	  from="0"
	  to="1"
	  fill="freeze"
      dur="7s"
      repeatCount="0" />
	  <text transform="scale(-1,1)" x="128" y="-64" class="big">m Leafs (default 3)</text>

<path id="l0" transform="translate(-32,-64)" fill="#202020" stroke="black" style="opacity: 0.95;" d="M-69 -3 C-75 -57, 21 -53, 58 -5 M58 -5 C54 40, 25 42, -69 -3"/>
<path id="l1" transform="translate(96,-48)rotate(181)" fill="#202020" stroke="black" style="opacity: 0.95;" d="M-69 -5 C-75 -55, 24 -58, 59 -3 M59 -3 C59 37, 23 40, -69 -5"/>
<path id="l2" transform="scale(0.8)translate(104,-104)rotate(158)" fill="#202020" stroke="black" style="opacity: 0.95;" d="M-70 -3 C-69 -58, 25 -57, 59 -6 M59 -6 C56 43, 26 42, -70 -3"/>
</g>
<g opacity="0">
 <animate
      attributeName="opacity"
      values="0;1;1"
	  begin="6s"
	  from="0"
	  to="1"
      dur="4s"
	  	  fill="freeze"
      repeatCount="0" />
	  <text transform="scale(-1,1)" x="64" y="128" class="big">o Stems (default 1)</text>
<path id="s0" transform="" fill="#202020" stroke="black" style="opacity: 0.95;" d="M-33 319 C22 -163, 114 -84, -1 -321 M-1 -321 C101 -86, 12 -187, -33 319"/>
</g>

<g transform="translate(-32, -340)" opacity="0">
<text transform="scale(-1.28, 1.28)" x="-320" y="-164" class="big">A Flower consists of parts:</text>
 <animate
      attributeName="opacity"
      values="0;1;1"
	  begin="0.5s"
	  from="0"
	  to="1"
      dur="10s"
	  fill="freeze"

      repeatCount="0" />
	  <text transform="scale(-1,1)" x="164" y="64" class="big">n Petals (default 12)</text>
<path id="p0" transform="scale(0.13774005747952164)translate(0,21)rotate(38)" fill="#202020" stroke="black" style="opacity: 0.95;" d="M-84 23 C-97 -106, 34 -75, 61 -34 M61 -34 C27 -89, -154 -158, -84 23"/>
<path id="p1" transform="scale(0.15497497208994027)translate(0,-12)rotate(154)" fill="#202020" stroke="black" style="opacity: 0.95;" d="M-80 18 C-88 -108, 31 -72, 65 -34 M65 -34 C36 -124, -128 -162, -80 18"/>
<path id="p2" transform="scale(0.4997163618533744)translate(0,15)rotate(49)" fill="#202020" stroke="black" style="opacity: 0.95;" d="M-80 17 C-61 -107, 22 -85, 60 -34 M60 -34 C50 -115, -139 -150, -80 17"/>
<path id="p3" transform="scale(0.46659868876271265)translate(0,-16)rotate(284)" fill="#202020" stroke="black" style="opacity: 0.95;" d="M-79 17 C-72 -128, 37 -66, 66 -33 M66 -33 C55 -93, -139 -185, -79 17"/>
<path id="p4" transform="scale(0.6127933169478548)translate(0,12)rotate(15)" fill="#202020" stroke="black" style="opacity: 0.95;" d="M-77 20 C-65 -131, 25 -70, 66 -39 M66 -39 C51 -117, -153 -152, -77 20"/>
<path id="p5" transform="scale(0.5509450040985509)translate(0,-10)rotate(201)" fill="#202020" stroke="black" style="opacity: 0.95;" d="M-83 19 C-61 -127, 15 -49, 66 -38 M66 -38 C32 -122, -146 -155, -83 19"/>
<path id="p6" transform="scale(0.9240537034844948)translate(0,7)rotate(11)" fill="#202020" stroke="black" style="opacity: 0.95;" d="M-81 18 C-74 -140, 21 -60, 66 -37 M66 -37 C44 -90, -135 -163, -81 18"/>
<path id="p7" transform="scale(1.0414574728386365)translate(0,-11)rotate(210)" fill="#202020" stroke="black" style="opacity: 0.95;" d="M-81 22 C-71 -106, 17 -56, 66 -34 M66 -34 C33 -100, -124 -164, -81 22"/>
<path id="p8" transform="scale(1.1021958001562417)translate(0,-9)rotate(87)" fill="#202020" stroke="black" style="opacity: 0.95;" d="M-77 18 C-85 -126, 27 -82, 68 -34 M68 -34 C35 -106, -132 -159, -77 18"/>
<path id="p9" transform="scale(1.2089041447399278)translate(0,15)rotate(281)" fill="#202020" stroke="black" style="opacity: 0.95;" d="M-83 18 C-73 -113, 16 -88, 63 -35 M63 -35 C23 -109, -143 -164, -83 18"/>
<path id="p10" transform="scale(1.5727582932251827)translate(0,-8)rotate(111)" fill="#202020" stroke="black" style="opacity: 0.95;" d="M-80 20 C-80 -120, 46 -77, 62 -35 M62 -35 C51 -94, -153 -169, -80 20"/>
<path id="p11" transform="scale(1.5297723563829748)translate(0,10)rotate(177)" fill="#202020" stroke="black" style="opacity: 0.95;" d="M-84 24 C-63 -121, 35 -71, 65 -37 M65 -37 C34 -106, -151 -163, -84 24"/>
</g></g>
<g opacity="0">
<animate
      attributeName="opacity"
      values="0;1;1"
	  begin="10s"
      dur="2s"
	  from="0"
	  to="1"
	  fill="freeze"
      repeatCount="0" />
<text x="768" y="168" class="big">Each petal, leaf and stem consist of
</text>
<text x="768" y="212" class="big">a path of 2 filled &amp; transformed Bézier curves.
</text>
</g>
<g>
<g transform="translate(860, 340) scale(0.6)">
<g opacity="0">
<animate
      attributeName="opacity"
      values="0;1;1"
	  begin="11s"
      dur="2s"
	  from="0"
	  to="1"
	  fill="freeze"
      repeatCount="0" />
<path id="p10" transform="scale(1.5727582932251827)translate(0,-8)rotate(111)" fill="none" stroke="black"  d="M-80 20 C-80 -120, 46 -77, 62 -35"/>
<path id="s0b" transform="translate(300, 200)" fill="none" stroke="black" d="M-33 319 C22 -163, 114 -84, -1 -321"/>
<path id="l0" transform="translate(520,260) scale(1.2)" fill="none" stroke="black" d="M-69 -3 C-75 -57, 21 -53, 58 -5"/>

</g>
<g opacity="0">
<path  id="p10b" transform="scale(1.5727582932251827)translate(0,-8)rotate(111)" fill="none" stroke="black"  d="M62 -35 C51 -94, -153 -169, -80 20"/>
<path id="s0b" transform="translate(300, 200)" fill="none" stroke="black" d="M-1 -321 C101 -86, 12 -187, -33 319"/>
<path id="l0b" transform="translate(520,260) scale(1.2)" fill="none" stroke="black" d="M58 -5 C54 40, 25 42, -69 -3"/>

<animate
      attributeName="opacity"
      values="0;1;1"
	  begin="15s"
      dur="2s"
	  from="0"
	  to="1"
	  fill="freeze"
      repeatCount="0" />
</g>
<g opacity="0">
<path  id="p10b" transform="scale(1.5727582932251827)translate(0,-8)rotate(111)" fill="black" stroke="black"  d="M-80 20 C-80 -120, 46 -77, 62 -35 M62 -35 C51 -94, -153 -169, -80 20"/>
<path id="s0b" transform="translate(300, 200)" fill="black" stroke="black" d="M-33 319 C22 -163, 114 -84, -1 -321 M-1 -321 C101 -86, 12 -187, -33 319"/>
<path id="l0b" transform="translate(520,260) scale(1.2)" fill="black" stroke="black" d="M-69 -3 C-75 -57, 21 -53, 58 -5 M58 -5 C54 40, 25 42, -69 -3"/>
<animate
      attributeName="opacity"
      values="0;1;1"
	  begin="20s"
      dur="2s"
	  from="0"
	  to="1"
	  fill="freeze"
      repeatCount="0" />
</g>


</g>
<g opacity="0">
<text x="1200" y="720" class="big">And finally we have:</text>
<text x="800" y="780" class="big">Users &amp; Ratings. Flowers have an origin.</text>

<animate
      attributeName="opacity"
      values="0;1;1"
	  begin="22s"
      dur="2s"
	  from="0"
	  to="1"
	  fill="freeze"
      repeatCount="0" />
</g>


</g>
<a href="/app/ddl">
<text x="1200" y="64" class="big">DDL</text>
</a>
</svg>